<?xml version="1.0" encoding="utf-8"?>
<!-- Generator: Adobe Illustrator 16.0.0, SVG Export Plug-In . SVG Version: 6.00 Build 0)  -->
<!DOCTYPE svg PUBLIC "-//W3C//DTD SVG 1.1//EN" "http://www.w3.org/Graphics/SVG/1.1/DTD/svg11.dtd">
<svg version="1.1" id="Capa_2" xmlns="http://www.w3.org/2000/svg" xmlns:xlink="http://www.w3.org/1999/xlink" x="0px" y="0px"
	 width="39.928px" height="599.916px" viewBox="0 0 39.928 599.916" enable-background="new 0 0 39.928 599.916"
	 xml:space="preserve" preserveAspectRatio="xMidYMid meet">
<g>
	<rect x="1.152" y="1.152" fill="#999999" width="19.342" height="11.948"/>
	<path id="mail" fill="#FFFFFF" d="M18.891,0H2.699C1.208,0,0,1.209,0,2.699v8.771c0,1.491,1.208,2.699,2.699,2.699h16.19
		c1.49,0,2.699-1.208,2.699-2.699V2.699C21.59,1.209,20.381,0,18.891,0z M1.35,3.542l4.722,3.542L1.35,10.626V3.542z M20.24,11.469
		c0,0.745-0.605,1.349-1.35,1.349H2.699c-0.745,0-1.351-0.604-1.351-1.349l5.284-3.963l2.947,2.21
		c0.357,0.269,0.786,0.405,1.213,0.405s0.854-0.136,1.213-0.405l2.948-2.21L20.24,11.469L20.24,11.469z M20.24,10.626l-4.723-3.542
		l4.723-3.542V10.626z M11.604,9.176c-0.234,0.177-0.515,0.27-0.809,0.27c-0.293,0-0.574-0.093-0.81-0.27l-2.79-2.092L6.634,6.662
		L1.35,2.699l0,0C1.35,1.955,1.954,1.35,2.7,1.35h16.19c0.743,0,1.35,0.605,1.35,1.349L11.604,9.176z"/>
</g>
<path fill="#999999" d="M16.394,39.22c-0.228,0.979-0.752,2.109-1.487,2.657c-2.569,1.912-7.787-0.172-11.069-4.57
	c-3.284-4.396-3.764-10.153-1.2-12.069c0.72-0.535,2.095-0.688,3.078-0.641v0.001c0.049-0.005,0.093-0.014,0.141-0.008
	c0.234,0.034,0.402,0.193,0.482,0.394c0.005-0.001,0.008,0,0.011,0l1.883,4.667c0.041,0.106,0.071,0.214,0.054,0.332
	c-0.028,0.189-0.147,0.336-0.295,0.431c0.001,0.002,0.001,0.002,0.004,0.005l-2,1.287c-0.217,0.167-0.292,0.457-0.189,0.708
	c0.367,0.872,0.948,1.583,1.563,2.405c0.613,0.824,1.302,1.542,2.033,2.146c0.208,0.172,0.508,0.18,0.726,0.015l1.589-1.18
	c0.007,0.003,0.007,0.004,0.009,0.005c0.13-0.118,0.328-0.333,0.518-0.306c0.115,0.017,0.23-0.014,0.321,0c0,0,0,0,0.002,0
	l3.64,2.906c0,0.004-0.044,0.059-0.047,0.064c0.188,0.129,0.321,0.409,0.287,0.646c-0.004,0.029-0.056,0.052-0.059,0.079
	C16.389,39.194,16.392,39.217,16.394,39.22z"/>
<g>
	<g>
		<g>
			<g>
				<path fill="#333333" d="M30.529,85C25.775,85,22,89.007,22,93.949c0,6.738,7.224,13.7,7.224,13.7
					c0.973,0.92,1.575,0.996,2.609,0c0,0,7.304-6.962,7.304-13.7C39.137,89.007,35.282,85,30.529,85z M30.574,97.616
					c-2.248,0-4.068-1.82-4.068-4.064c0-2.242,1.82-4.063,4.068-4.063c2.249,0,4.069,1.821,4.069,4.063
					C34.645,95.796,32.823,97.616,30.574,97.616z"/>
			</g>
		</g>
	</g>
</g>
<g>
	<rect x="28" y="188" fill="#DCE2B2" width="12" height="12"/>
	<rect x="30.057" y="190.016" fill="#FFFFFF" width="8" height="8"/>
	<rect x="33.072" y="191" fill="#8D9C01" width="2" height="6"/>
	<rect x="31.072" y="193" fill="#8D9C01" width="6" height="2"/>
</g>
<g>
	<rect x="28" y="236" fill="#C9C9C9" width="12" height="12"/>
	<rect x="30.057" y="238.016" fill="#FFFFFF" width="8" height="8"/>
	<rect x="33.072" y="239" fill="#333333" width="2" height="6"/>
	<rect x="31.072" y="241" fill="#333333" width="6" height="2"/>
</g>
<g>
	<rect x="19.208" y="285.208" fill="#333333" width="20.269" height="12.521"/>
	<path id="mail_1_" fill="#FFFFFF" d="M37.797,284H20.829c-1.563,0-2.829,1.267-2.829,2.829v9.19c0,1.563,1.266,2.829,2.829,2.829
		h16.968c1.562,0,2.829-1.266,2.829-2.829v-9.19C40.626,285.267,39.359,284,37.797,284z M19.415,287.711l4.949,3.713l-4.949,3.713
		V287.711z M39.211,296.019c0,0.781-0.635,1.415-1.414,1.415H20.829c-0.781,0-1.415-0.634-1.415-1.415l5.538-4.153l3.089,2.317
		c0.375,0.28,0.823,0.424,1.271,0.424s0.895-0.143,1.271-0.424l3.09-2.317L39.211,296.019L39.211,296.019z M39.211,295.137
		l-4.948-3.713l4.948-3.713V295.137z M30.16,293.616c-0.246,0.186-0.539,0.283-0.848,0.283s-0.603-0.097-0.849-0.283l-2.924-2.192
		l-0.589-0.442l-5.538-4.153l0,0c0-0.78,0.633-1.414,1.415-1.414h16.968c0.779,0,1.414,0.634,1.414,1.414L30.16,293.616z"/>
</g>
<g>
	<path fill="#333333" d="M30.568,338.921v-0.03c-0.006,0.011-0.013,0.021-0.02,0.03H30.568z"/>
	<path fill="#333333" d="M38.202,330h-16.75C20.65,330,20,330.635,20,331.417v16.944c0,0.782,0.649,1.417,1.452,1.417h16.75
		c0.802,0,1.451-0.636,1.451-1.417v-16.944C39.654,330.634,39.004,330,38.202,330z M25.958,346.558H22.99v-8.932h2.969V346.558z
		 M24.474,336.406h-0.021c-0.995,0-1.641-0.688-1.641-1.543c0-0.876,0.664-1.543,1.681-1.543c1.016,0,1.64,0.667,1.659,1.543
		C26.153,335.72,25.508,336.406,24.474,336.406z M36.662,346.558h-2.97v-4.778c0-1.2-0.429-2.021-1.503-2.021
		c-0.819,0-1.309,0.554-1.523,1.086c-0.078,0.19-0.098,0.457-0.098,0.726v4.987H27.6c0,0,0.039-8.095,0-8.932h2.969v1.264
		c0.396-0.607,1.101-1.475,2.677-1.475c1.953,0,3.418,1.277,3.418,4.02L36.662,346.558L36.662,346.558z"/>
</g>
<g id="Lozenge">
	<g>
		<path fill="#333333" d="M39.791,386.188c0,0-0.207-1.447-0.836-2.085c-0.799-0.837-1.693-0.842-2.104-0.891
			C33.912,383,29.504,383,29.504,383h-0.008c0,0-4.408,0-7.349,0.212c-0.41,0.049-1.305,0.054-2.104,0.891
			c-0.63,0.638-0.835,2.085-0.835,2.085S19,387.886,19,389.585v1.594c0,1.699,0.21,3.398,0.21,3.398s0.205,1.447,0.835,2.084
			c0.799,0.837,1.848,0.811,2.313,0.897c1.681,0.16,7.142,0.211,7.142,0.211s4.412-0.007,7.352-0.22
			c0.41-0.049,1.306-0.053,2.104-0.89c0.629-0.637,0.836-2.084,0.836-2.084S40,392.878,40,391.179v-1.594
			C40,387.886,39.791,386.188,39.791,386.188z M27.332,393.108l-0.002-5.9l5.676,2.961L27.332,393.108z"/>
	</g>
</g>
<path fill="#333333" d="M36,439H23.072c-2.245,0-4.071,1.826-4.071,4.072v4.302v8.627c0,2.246,1.826,4.072,4.071,4.072h12.93
	c2.246,0,4.072-1.826,4.072-4.072v-8.628v-4.302C40.072,440.826,38.246,439,36,439z M37.169,441.429l0.466-0.002v0.464v3.108
	l-3.561,0.012l-0.013-3.571L37.169,441.429z M26.528,447.373c0.677-0.934,1.771-1.546,3.01-1.546c1.236,0,2.332,0.612,3.007,1.546
	c0.438,0.608,0.702,1.354,0.702,2.163c0,2.046-1.665,3.709-3.709,3.709c-2.046,0-3.71-1.663-3.71-3.709
	C25.827,448.729,26.09,447.981,26.528,447.373z M38.02,456c0,1.115-0.905,2.02-2.02,2.02H23.072c-1.111,0-2.02-0.903-2.02-2.02
	v-8.627h3.146c-0.271,0.669-0.425,1.398-0.425,2.163c0,3.177,2.584,5.763,5.764,5.763c3.177,0,5.762-2.586,5.762-5.763
	c0-0.766-0.154-1.494-0.426-2.163h3.146L38.02,456L38.02,456z"/>
<g>
	<rect x="15" y="510" fill="#999999" width="22" height="3"/>
	<rect x="15" y="516" fill="#999999" width="22" height="3"/>
	<rect x="15" y="522" fill="#999999" width="22" height="3"/>
</g>
<path fill="#333333" d="M35.068,569.329H18.05c-1.099,0-1.991,0.892-1.991,1.991v17.019c0,1.099,0.892,1.99,1.991,1.99h17.018
	c1.1,0,1.991-0.892,1.991-1.99V571.32C37.059,570.221,36.167,569.329,35.068,569.329z M27.87,580.767h-2.662
	c0,4.254,0,9.493,0,9.493h-3.946c0,0,0-5.188,0-9.493h-1.876v-3.354h1.876v-2.17c0-1.555,0.738-3.982,3.981-3.982l2.923,0.011v3.256
	c0,0-1.776,0-2.122,0s-0.836,0.173-0.836,0.914v1.972h3.006L27.87,580.767z"/>
</svg>
