<?xml version="1.0" encoding="utf-8"?>
<!-- Generator: Adobe Illustrator 16.0.0, SVG Export Plug-In . SVG Version: 6.00 Build 0)  -->
<!DOCTYPE svg PUBLIC "-//W3C//DTD SVG 1.1//EN" "http://www.w3.org/Graphics/SVG/1.1/DTD/svg11.dtd">
<svg version="1.1" id="Capa_2" xmlns="http://www.w3.org/2000/svg" xmlns:xlink="http://www.w3.org/1999/xlink" x="0px" y="0px"
	 width="39.928px" height="599.916px" viewBox="0 0 39.928 599.916" enable-background="new 0 0 39.928 599.916"
	 xml:space="preserve">
<g>
	<rect x="1.152" y="1.152" fill="#999999" width="19.341" height="11.948"/>
	<path id="mail" fill="#FFFFFF" d="M18.891,0H2.699C1.208,0,0,1.209,0,2.699v8.771c0,1.491,1.208,2.699,2.699,2.699h16.191
		c1.49,0,2.699-1.208,2.699-2.699V2.699C21.59,1.209,20.381,0,18.891,0z M1.35,3.542l4.722,3.542L1.35,10.626V3.542z M20.239,11.469
		c0,0.745-0.605,1.349-1.349,1.349H2.699c-0.745,0-1.35-0.604-1.35-1.349l5.284-3.963l2.947,2.21
		c0.358,0.269,0.786,0.405,1.213,0.405s0.854-0.136,1.213-0.405l2.948-2.21L20.239,11.469L20.239,11.469z M20.239,10.626
		l-4.722-3.542l4.722-3.542V10.626z M11.604,9.176c-0.235,0.177-0.515,0.27-0.809,0.27c-0.293,0-0.574-0.093-0.809-0.27l-2.79-2.092
		L6.634,6.662L1.35,2.699v0c0-0.744,0.604-1.349,1.35-1.349h16.191c0.743,0,1.349,0.605,1.349,1.349L11.604,9.176z"/>
</g>
<path fill="#999999" d="M19.027,41.722c-0.267,1.147-0.881,2.47-1.742,3.112c-3.008,2.239-9.118-0.201-12.962-5.352
	c-3.845-5.147-4.407-11.89-1.405-14.134c0.843-0.626,2.453-0.805,3.605-0.75V24.6c0.057-0.006,0.109-0.017,0.165-0.009
	c0.274,0.04,0.47,0.226,0.564,0.461c0.006-0.002,0.01-0.001,0.013-0.001l2.205,5.466c0.048,0.124,0.083,0.25,0.063,0.388
	C9.5,31.127,9.361,31.299,9.188,31.41c0.002,0.002,0.002,0.002,0.005,0.006l-2.342,1.507c-0.254,0.195-0.342,0.535-0.222,0.829
	c0.43,1.021,1.11,1.853,1.831,2.816c0.718,0.965,1.525,1.805,2.381,2.513c0.244,0.202,0.595,0.211,0.85,0.017l1.861-1.381
	c0.008,0.003,0.008,0.004,0.011,0.006c0.152-0.138,0.384-0.39,0.606-0.358c0.135,0.02,0.27-0.016,0.376,0c0,0,0,0,0.003,0
	l4.263,3.403c-0.001,0.005-0.052,0.069-0.056,0.075c0.22,0.151,0.376,0.479,0.336,0.756c-0.005,0.035-0.065,0.061-0.069,0.093
	C19.022,41.692,19.025,41.719,19.027,41.722z"/>
<g>
	<g>
		<g>
			<g>
				<path fill="#333333" d="M30.529,85C25.775,85,22,89.007,22,93.949c0,6.738,7.224,13.7,7.224,13.7
					c0.973,0.92,1.575,0.996,2.609,0c0,0,7.304-6.962,7.304-13.7C39.137,89.007,35.282,85,30.529,85z M30.574,97.616
					c-2.248,0-4.068-1.82-4.068-4.064c0-2.242,1.82-4.063,4.068-4.063c2.249,0,4.07,1.821,4.07,4.063
					C34.645,95.796,32.823,97.616,30.574,97.616z"/>
			</g>
		</g>
	</g>
</g>
<g>
	<rect x="28" y="188" fill="#DCE2B2" width="12" height="12"/>
	<rect x="30.057" y="190.016" fill="#FFFFFF" width="8" height="8"/>
	<rect x="33.072" y="191" fill="#8D9C01" width="2" height="6"/>
	<rect x="31.072" y="193" fill="#8D9C01" width="6" height="2"/>
</g>
<g>
	<rect x="28" y="236" fill="#C9C9C9" width="12" height="12"/>
	<rect x="30.057" y="238.016" fill="#FFFFFF" width="8" height="8"/>
	<rect x="33.072" y="239" fill="#333333" width="2" height="6"/>
	<rect x="31.072" y="241" fill="#333333" width="6" height="2"/>
</g>
<g>
	<rect x="18.208" y="285.208" fill="#333333" width="20.269" height="12.521"/>
	<path id="mail_1_" fill="#FFFFFF" d="M36.797,284H19.829c-1.563,0-2.829,1.267-2.829,2.829v9.19c0,1.563,1.266,2.829,2.829,2.829
		h16.968c1.562,0,2.829-1.266,2.829-2.829v-9.19C39.626,285.267,38.359,284,36.797,284z M18.415,287.711l4.949,3.713l-4.949,3.713
		V287.711z M38.211,296.019c0,0.781-0.635,1.415-1.414,1.415H19.829c-0.781,0-1.415-0.634-1.415-1.415l5.538-4.153l3.089,2.317
		c0.375,0.28,0.823,0.424,1.272,0.424c0.448,0,0.894-0.143,1.271-0.424l3.09-2.317L38.211,296.019L38.211,296.019z M38.211,295.137
		l-4.948-3.713l4.948-3.713V295.137z M29.16,293.616c-0.246,0.186-0.539,0.283-0.847,0.283c-0.309,0-0.603-0.097-0.849-0.283
		l-2.924-2.192l-0.589-0.442l-5.538-4.153l0,0c0-0.78,0.633-1.414,1.415-1.414h16.968c0.779,0,1.414,0.634,1.414,1.414
		L29.16,293.616z"/>
</g>
<g>
	<path fill="#333333" d="M30.568,338.921v-0.03c-0.006,0.01-0.013,0.021-0.02,0.03H30.568z"/>
	<path fill="#333333" d="M38.202,330h-16.75C20.65,330,20,330.635,20,331.417v16.944c0,0.783,0.65,1.417,1.452,1.417h16.75
		c0.802,0,1.452-0.635,1.452-1.417v-16.944C39.654,330.634,39.004,330,38.202,330z M25.958,346.558h-2.969v-8.932h2.969V346.558z
		 M24.474,336.406h-0.021c-0.995,0-1.64-0.687-1.64-1.543c0-0.876,0.664-1.543,1.68-1.543s1.64,0.667,1.66,1.543
		C26.153,335.72,25.508,336.406,24.474,336.406z M36.662,346.558h-2.969v-4.779c0-1.2-0.429-2.02-1.503-2.02
		c-0.82,0-1.309,0.553-1.524,1.086c-0.078,0.19-0.097,0.457-0.097,0.725v4.988h-2.969c0,0,0.039-8.095,0-8.932h2.969v1.264
		c0.395-0.608,1.1-1.475,2.676-1.475c1.953,0,3.418,1.277,3.418,4.02L36.662,346.558L36.662,346.558z"/>
</g>
<g id="Lozenge">
	<g>
		<path fill="#333333" d="M39.791,386.187c0,0-0.207-1.447-0.836-2.084c-0.799-0.837-1.693-0.842-2.104-0.891
			C33.912,383,29.504,383,29.504,383h-0.008c0,0-4.408,0-7.348,0.212c-0.41,0.049-1.305,0.054-2.104,0.891
			c-0.63,0.637-0.835,2.084-0.835,2.084S19,387.886,19,389.585v1.594c0,1.699,0.21,3.398,0.21,3.398s0.205,1.447,0.835,2.084
			c0.799,0.837,1.848,0.811,2.314,0.898c1.68,0.16,7.141,0.211,7.141,0.211s4.412-0.007,7.352-0.22
			c0.41-0.049,1.305-0.053,2.104-0.89c0.629-0.637,0.836-2.084,0.836-2.084S40,392.878,40,391.179v-1.594
			C40,387.886,39.791,386.187,39.791,386.187z M27.332,393.108l-0.002-5.9l5.676,2.961L27.332,393.108z"/>
	</g>
</g>
<path fill="#333333" d="M36,438H23.072c-2.246,0-4.072,1.826-4.072,4.072v4.302v8.627c0,2.246,1.826,4.072,4.072,4.072h12.929
	c2.246,0,4.072-1.826,4.072-4.072v-8.628v-4.302C40.072,439.826,38.246,438,36,438z M37.169,440.429l0.466-0.002v0.464v3.108
	l-3.561,0.012l-0.012-3.572L37.169,440.429z M26.528,446.373c0.676-0.934,1.771-1.546,3.009-1.546c1.237,0,2.332,0.612,3.007,1.546
	c0.438,0.608,0.702,1.355,0.702,2.163c0,2.046-1.665,3.709-3.709,3.709c-2.046,0-3.71-1.663-3.71-3.709
	C25.827,447.729,26.09,446.981,26.528,446.373z M38.02,455c0,1.115-0.906,2.02-2.02,2.02H23.072c-1.112,0-2.02-0.904-2.02-2.02
	v-8.627h3.146c-0.271,0.669-0.424,1.398-0.424,2.163c0,3.177,2.584,5.763,5.763,5.763c3.177,0,5.762-2.586,5.762-5.763
	c0-0.765-0.154-1.494-0.426-2.163h3.146V455z"/>
<g>
	<rect x="15" y="510" fill="#999999" width="22" height="3"/>
	<rect x="15" y="516" fill="#999999" width="22" height="3"/>
	<rect x="15" y="522" fill="#999999" width="22" height="3"/>
</g>
</svg>
