<svg xmlns="http://www.w3.org/2000/svg" width="355" height="67" viewBox="0 0 355 67"><title>infraestructures de muntanya</title><g fill="#CFD6A0"><path d="M2.052 6.807v-5.5h6.662v5.5H2.052zm6.662 3.76v24.3H2.052v-24.3h6.662zM20.3 10.567v3.384h.142c.844-1.41 1.938-2.435 3.284-3.078 1.344-.642 2.72-.963 4.128-.963 1.783 0 3.244.242 4.386.728 1.14.486 2.04 1.16 2.697 2.02.657.863 1.118 1.913 1.384 3.15.266 1.238.4 2.608.4 4.113v14.947h-6.663V21.142c0-2.005-.313-3.5-.938-4.488-.627-.987-1.737-1.48-3.332-1.48-1.814 0-3.127.54-3.94 1.622-.813 1.08-1.22 2.86-1.22 5.334v12.737h-6.662v-24.3H20.3zM39.253 15.032v-4.465h3.987v-1.88c0-2.162.672-3.932 2.018-5.31 1.344-1.38 3.377-2.07 6.1-2.07.593 0 1.187.024 1.782.072.594.046 1.173.085 1.735.116v4.982c-.782-.094-1.595-.14-2.44-.14-.906 0-1.555.21-1.946.633-.392.424-.587 1.137-.587 2.14v1.457H54.5v4.465h-4.598v19.834H43.24V15.032h-3.987zM63.74 10.567v4.512h.095c.312-.753.734-1.45 1.267-2.092.53-.642 1.14-1.19 1.83-1.645.688-.454 1.422-.807 2.205-1.058.78-.25 1.595-.376 2.44-.376.437 0 .92.078 1.454.234v6.204c-.312-.062-.687-.118-1.125-.165-.438-.047-.86-.07-1.267-.07-1.22 0-2.252.204-3.096.61-.845.41-1.525.964-2.04 1.67s-.885 1.527-1.103 2.467c-.22.94-.33 1.958-.33 3.055v10.95h-6.662V10.568h6.333zM75.375 18.04c.094-1.566.484-2.867 1.173-3.9.688-1.035 1.563-1.865 2.627-2.492 1.063-.626 2.26-1.073 3.59-1.34 1.328-.266 2.665-.4 4.01-.4 1.22 0 2.455.088 3.706.26 1.25.172 2.394.51 3.426 1.01s1.876 1.2 2.533 2.09c.656.894.984 2.077.984 3.55V29.46c0 1.098.062 2.147.188 3.15.125 1.003.344 1.755.657 2.256h-6.756c-.125-.376-.227-.76-.305-1.15s-.134-.792-.165-1.2c-1.063 1.097-2.315 1.865-3.753 2.303-1.44.437-2.91.657-4.41.657-1.157 0-2.236-.142-3.237-.423-1-.282-1.876-.72-2.627-1.316-.75-.595-1.337-1.347-1.76-2.256-.42-.91-.632-1.99-.632-3.243 0-1.38.242-2.516.728-3.41.484-.892 1.11-1.604 1.876-2.137.766-.533 1.642-.932 2.627-1.2.985-.265 1.978-.476 2.98-.633 1-.157 1.985-.282 2.955-.376.97-.094 1.83-.235 2.58-.423s1.344-.46 1.783-.82c.438-.36.64-.886.61-1.576 0-.72-.117-1.292-.352-1.715-.234-.424-.547-.753-.938-.988-.392-.235-.845-.392-1.36-.47-.517-.078-1.072-.118-1.666-.118-1.314 0-2.347.282-3.097.846-.75.564-1.19 1.504-1.313 2.82h-6.665zm15.387 4.935c-.282.25-.633.447-1.056.587-.422.14-.876.26-1.36.353-.485.094-.993.173-1.525.235-.53.063-1.062.14-1.594.235-.5.094-.993.22-1.478.376-.485.158-.907.37-1.267.635-.36.267-.648.604-.867 1.01-.22.41-.33.925-.33 1.552 0 .596.11 1.097.33 1.504.218.408.516.73.89.964.376.235.814.4 1.314.493.5.094 1.016.14 1.548.14 1.313 0 2.33-.218 3.05-.657.718-.438 1.25-.964 1.594-1.575s.554-1.23.633-1.856c.078-.627.117-1.13.117-1.505v-2.49zM109.714 29.038c1 .972 2.44 1.457 4.316 1.457 1.344 0 2.5-.336 3.47-1.01.97-.673 1.564-1.387 1.784-2.14h5.864c-.938 2.915-2.377 5-4.316 6.252-1.94 1.253-4.285 1.88-7.037 1.88-1.908 0-3.628-.306-5.16-.917-1.533-.61-2.83-1.48-3.894-2.608-1.063-1.128-1.884-2.475-2.462-4.042-.58-1.566-.868-3.29-.868-5.17 0-1.817.297-3.51.892-5.076.594-1.566 1.438-2.92 2.533-4.065 1.094-1.145 2.4-2.045 3.917-2.704 1.517-.658 3.197-.987 5.043-.987 2.064 0 3.862.398 5.395 1.198 1.532.8 2.792 1.873 3.776 3.22.985 1.347 1.696 2.882 2.135 4.605.44 1.724.595 3.525.47 5.405h-17.5c.096 2.162.643 3.73 1.644 4.7zm7.53-12.784c-.797-.877-2.01-1.316-3.636-1.316-1.063 0-1.947.18-2.65.54-.704.362-1.267.808-1.69 1.34-.42.534-.72 1.098-.89 1.693-.172.597-.274 1.13-.305 1.6h10.837c-.314-1.694-.87-2.98-1.666-3.856zM135.117 28.826c.297.517.68.94 1.15 1.27s1.008.57 1.618.728c.61.157 1.243.235 1.9.235.47 0 .96-.055 1.478-.166.516-.11.985-.282 1.408-.517.423-.235.775-.548 1.056-.94.282-.39.422-.885.422-1.48 0-1.002-.665-1.754-1.994-2.256-1.33-.5-3.183-1-5.56-1.503-.97-.22-1.915-.478-2.837-.775-.923-.297-1.744-.69-2.463-1.175-.72-.485-1.298-1.096-1.736-1.833-.438-.736-.657-1.637-.657-2.702 0-1.566.306-2.85.916-3.854.61-1.002 1.415-1.793 2.416-2.374 1-.58 2.126-.987 3.377-1.222 1.25-.235 2.532-.353 3.846-.353s2.588.124 3.824.375c1.235.25 2.337.674 3.307 1.27.97.595 1.774 1.386 2.416 2.373.64.987 1.024 2.232 1.15 3.736h-6.334c-.095-1.284-.58-2.154-1.455-2.608-.876-.454-1.908-.682-3.096-.682-.376 0-.783.024-1.22.07-.44.048-.838.15-1.197.306-.36.157-.665.384-.915.682-.25.298-.375.698-.375 1.2 0 .594.218 1.08.657 1.456.438.376 1.01.68 1.712.917.704.235 1.508.446 2.416.634.907.187 1.83.39 2.768.61.97.22 1.916.486 2.838.8.922.312 1.743.728 2.463 1.245.72.517 1.297 1.16 1.736 1.927.438.768.657 1.715.657 2.844 0 1.598-.32 2.938-.962 4.018-.64 1.08-1.478 1.95-2.51 2.61s-2.213 1.12-3.542 1.386c-1.33.266-2.682.4-4.058.4-1.408 0-2.784-.143-4.128-.424-1.345-.282-2.542-.753-3.59-1.41-1.047-.66-1.907-1.528-2.58-2.61-.672-1.08-1.04-2.435-1.102-4.064h6.333c0 .72.15 1.337.447 1.854zM168.025 10.567v4.465h-4.88v12.032c0 1.128.19 1.88.564 2.256.374.376 1.125.564 2.25.564.375 0 .735-.016 1.08-.047.343-.03.67-.078.984-.14v5.17c-.563.093-1.19.155-1.876.187-.688.03-1.36.047-2.018.047-1.032 0-2.01-.07-2.932-.21-.923-.142-1.736-.416-2.44-.823s-1.258-.987-1.665-1.74c-.407-.75-.61-1.738-.61-2.96V15.032h-4.035v-4.465h4.035V3.282h6.662v7.285h4.88zM177.547 10.567v4.512h.094c.313-.753.735-1.45 1.268-2.092.53-.642 1.14-1.19 1.83-1.645.688-.454 1.422-.807 2.205-1.058.78-.25 1.594-.376 2.44-.376.437 0 .92.078 1.452.234v6.204c-.312-.062-.688-.118-1.125-.165-.44-.047-.86-.07-1.268-.07-1.22 0-2.252.204-3.096.61-.844.41-1.525.964-2.04 1.67s-.885 1.527-1.103 2.467c-.22.94-.33 1.958-.33 3.055v10.95h-6.66V10.568h6.334zM205.882 34.866v-3.384h-.14c-.845 1.41-1.94 2.43-3.284 3.055-1.346.627-2.722.94-4.13.94-1.78 0-3.244-.235-4.385-.705-1.143-.47-2.04-1.136-2.697-1.998-.657-.862-1.12-1.91-1.385-3.15-.265-1.236-.397-2.607-.397-4.11V10.566h6.66V24.29c0 2.007.313 3.502.94 4.49.625.987 1.735 1.48 3.33 1.48 1.813 0 3.127-.54 3.94-1.622s1.22-2.86 1.22-5.334V10.567h6.662v24.3h-6.333zM228.868 14.938c-1.063 0-1.954.243-2.674.73-.72.485-1.306 1.112-1.76 1.88-.453.767-.773 1.613-.96 2.537-.19.925-.282 1.84-.282 2.75 0 .878.094 1.77.28 2.68.19.908.494 1.73.916 2.466.422.738.992 1.34 1.712 1.81s1.596.706 2.627.706c1.596 0 2.822-.446 3.683-1.34s1.4-2.09 1.62-3.595h6.426c-.438 3.23-1.688 5.688-3.753 7.38-2.064 1.69-4.707 2.538-7.93 2.538-1.812 0-3.478-.306-4.995-.917-1.517-.61-2.807-1.463-3.87-2.56-1.063-1.097-1.893-2.405-2.486-3.925-.595-1.52-.892-3.188-.892-5.005 0-1.88.273-3.626.82-5.24.548-1.614 1.354-3.01 2.417-4.184 1.062-1.175 2.36-2.09 3.894-2.75 1.533-.658 3.285-.987 5.256-.987 1.438 0 2.82.187 4.15.563 1.33.376 2.518.948 3.566 1.715 1.047.77 1.9 1.724 2.557 2.867.655 1.144 1.03 2.5 1.125 4.065h-6.52c-.44-2.787-2.08-4.182-4.927-4.182zM257.532 10.567v4.465h-4.88v12.032c0 1.128.19 1.88.563 2.256.376.376 1.126.564 2.252.564.376 0 .734-.016 1.08-.047.343-.03.67-.078.984-.14v5.17c-.562.093-1.188.155-1.876.187-.688.03-1.36.047-2.017.047-1.032 0-2.01-.07-2.933-.21s-1.735-.416-2.44-.823c-.702-.407-1.258-.987-1.664-1.74-.407-.75-.61-1.738-.61-2.96V15.032h-4.034v-4.465h4.035V3.282h6.662v7.285h4.88zM277.14 34.866v-3.384H277c-.845 1.41-1.94 2.43-3.284 3.055-1.346.627-2.722.94-4.13.94-1.78 0-3.244-.235-4.385-.705-1.142-.47-2.04-1.136-2.696-1.998-.657-.862-1.12-1.91-1.385-3.15-.267-1.236-.4-2.607-.4-4.11V10.566h6.662V24.29c0 2.007.312 3.502.938 4.49.626.987 1.736 1.48 3.33 1.48 1.814 0 3.128-.54 3.94-1.622s1.22-2.86 1.22-5.334V10.567h6.663v24.3h-6.333zM294.872 10.567v4.512h.094c.312-.753.734-1.45 1.267-2.092.532-.642 1.142-1.19 1.83-1.645.688-.454 1.423-.807 2.205-1.058.78-.25 1.595-.376 2.44-.376.437 0 .92.078 1.453.234v6.204c-.312-.062-.687-.118-1.125-.165-.438-.047-.86-.07-1.267-.07-1.22 0-2.252.204-3.097.61-.843.41-1.523.964-2.04 1.67-.516.704-.884 1.527-1.102 2.467-.22.94-.33 1.958-.33 3.055v10.95h-6.66V10.568h6.334zM313.075 29.038c1 .972 2.44 1.457 4.315 1.457 1.345 0 2.502-.336 3.472-1.01.97-.673 1.563-1.387 1.783-2.14h5.863c-.938 2.915-2.377 5-4.315 6.252-1.94 1.253-4.285 1.88-7.037 1.88-1.908 0-3.628-.306-5.16-.917-1.533-.61-2.83-1.48-3.894-2.608-1.063-1.128-1.885-2.475-2.463-4.042-.58-1.566-.87-3.29-.87-5.17 0-1.817.298-3.51.893-5.076.594-1.566 1.438-2.92 2.533-4.065 1.095-1.145 2.4-2.045 3.917-2.704 1.517-.658 3.197-.987 5.043-.987 2.064 0 3.862.398 5.396 1.198 1.53.8 2.79 1.873 3.776 3.22.984 1.347 1.696 2.882 2.134 4.605.438 1.724.594 3.525.47 5.405h-17.498c.093 2.162.64 3.73 1.64 4.7zm7.53-12.784c-.8-.877-2.01-1.316-3.637-1.316-1.063 0-1.947.18-2.65.54-.704.362-1.267.808-1.688 1.34-.423.534-.72 1.098-.892 1.693-.173.597-.274 1.13-.305 1.6h10.836c-.313-1.694-.868-2.98-1.666-3.856zM338.478 28.826c.297.517.68.94 1.15 1.27.468.328 1.007.57 1.617.728.61.157 1.243.235 1.9.235.47 0 .96-.055 1.478-.166.516-.11.984-.282 1.407-.517.422-.235.773-.548 1.056-.94.28-.39.422-.885.422-1.48 0-1.002-.665-1.754-1.994-2.256-1.33-.5-3.183-1-5.56-1.503-.97-.22-1.915-.478-2.837-.775-.923-.297-1.744-.69-2.463-1.175-.72-.485-1.3-1.096-1.736-1.833-.438-.736-.656-1.637-.656-2.702 0-1.566.305-2.85.914-3.854.61-1.002 1.415-1.793 2.416-2.374 1-.58 2.127-.987 3.378-1.222s2.533-.353 3.847-.353 2.588.124 3.823.375c1.235.25 2.338.674 3.308 1.27.97.595 1.774 1.386 2.416 2.373.64.987 1.024 2.232 1.15 3.736h-6.334c-.094-1.284-.58-2.154-1.454-2.608-.876-.454-1.908-.682-3.097-.682-.376 0-.783.024-1.22.07-.44.048-.838.15-1.197.306-.36.157-.665.384-.915.682-.25.298-.375.698-.375 1.2 0 .594.22 1.08.657 1.456.438.376 1.008.68 1.712.917.703.235 1.51.446 2.416.634.906.187 1.83.39 2.768.61.97.22 1.915.486 2.838.8.923.312 1.743.728 2.463 1.245.72.517 1.298 1.16 1.736 1.927.438.768.656 1.715.656 2.844 0 1.598-.32 2.938-.962 4.018-.642 1.08-1.48 1.95-2.51 2.61-1.032.657-2.213 1.12-3.542 1.386-1.33.266-2.683.4-4.06.4-1.406 0-2.782-.143-4.127-.424-1.346-.282-2.542-.753-3.59-1.41s-1.908-1.528-2.58-2.61c-.673-1.08-1.04-2.435-1.103-4.064h6.333c0 .72.15 1.337.448 1.854z"/></g><g fill="#96A934"><path d="M21.12 54.898c-.783 1.315-1.81 2.264-3.078 2.843-1.27.58-2.703.87-4.3.87-1.818 0-3.416-.352-4.794-1.057-1.38-.705-2.514-1.66-3.407-2.867-.892-1.206-1.566-2.593-2.02-4.16-.455-1.565-.682-3.195-.682-4.888 0-1.63.227-3.203.682-4.724.454-1.52 1.128-2.858 2.02-4.018s2.013-2.09 3.36-2.796c1.347-.705 2.914-1.058 4.7-1.058 1.44 0 2.812.306 4.112.917 1.3.61 2.327 1.51 3.08 2.7h.093V24.44h6.674V58h-6.346v-3.102h-.093zm-.282-12.01c-.188-.923-.51-1.738-.963-2.443-.455-.705-1.042-1.276-1.763-1.715-.72-.438-1.63-.658-2.726-.658-1.097 0-2.02.22-2.773.658-.752.438-1.355 1.02-1.81 1.738-.454.722-.783 1.544-.986 2.468-.204.925-.305 1.888-.305 2.89 0 .94.11 1.88.33 2.82.218.94.57 1.78 1.057 2.515.484.738 1.096 1.334 1.832 1.787.736.455 1.622.682 2.656.682 1.096 0 2.013-.22 2.75-.66.736-.437 1.323-1.024 1.762-1.76.438-.737.752-1.576.94-2.516.188-.94.282-1.91.282-2.914s-.096-1.966-.284-2.89zM39.732 52.17c1.002.973 2.444 1.458 4.324 1.458 1.347 0 2.506-.336 3.478-1.01.97-.674 1.566-1.387 1.786-2.14h5.875c-.94 2.914-2.382 5-4.324 6.252-1.942 1.253-4.292 1.88-7.05 1.88-1.91 0-3.634-.306-5.17-.917-1.535-.61-2.835-1.48-3.9-2.608-1.066-1.128-1.888-2.475-2.468-4.042-.58-1.566-.87-3.29-.87-5.17 0-1.816.298-3.51.893-5.076.595-1.566 1.44-2.92 2.538-4.065 1.097-1.144 2.404-2.044 3.924-2.702 1.52-.658 3.204-.987 5.053-.987 2.068 0 3.87.4 5.405 1.198s2.797 1.874 3.784 3.22c.986 1.35 1.698 2.884 2.138 4.607.438 1.724.595 3.524.47 5.404h-17.53c.093 2.163.64 3.73 1.644 4.7zm7.544-12.783c-.8-.877-2.014-1.315-3.643-1.315-1.065 0-1.95.18-2.655.54-.705.36-1.27.808-1.692 1.34-.423.533-.72 1.097-.893 1.69-.172.597-.274 1.13-.305 1.6h10.857c-.314-1.693-.87-2.977-1.67-3.855zM79.118 33.7v3.29h.094c.876-1.252 1.934-2.224 3.172-2.913 1.237-.69 2.655-1.034 4.253-1.034 1.535 0 2.938.298 4.207.893 1.27.596 2.232 1.646 2.89 3.15.72-1.065 1.7-2.006 2.94-2.82 1.236-.815 2.7-1.223 4.394-1.223 1.284 0 2.475.157 3.572.47 1.097.313 2.037.815 2.82 1.504.783.69 1.394 1.59 1.833 2.703.438 1.112.658 2.452.658 4.02V58h-6.673V44.228c0-.813-.032-1.58-.094-2.303-.063-.72-.235-1.347-.517-1.88-.282-.532-.697-.955-1.245-1.27-.548-.312-1.29-.47-2.232-.47-.94 0-1.7.18-2.28.54-.58.36-1.033.83-1.362 1.41-.33.58-.55 1.24-.658 1.975-.11.736-.165 1.48-.165 2.232V58H88.05V44.37c0-.72-.017-1.434-.048-2.14-.032-.704-.165-1.353-.4-1.95-.235-.594-.627-1.072-1.175-1.433-.55-.36-1.355-.54-2.42-.54-.313 0-.73.07-1.246.21s-1.018.408-1.503.8c-.486.393-.9.956-1.246 1.692-.344.735-.516 1.7-.516 2.89V58H72.82V33.7h6.298zM131.663 58v-3.384h-.14c-.847 1.41-1.944 2.43-3.29 3.055-1.35.628-2.727.94-4.137.94-1.786 0-3.25-.234-4.395-.704-1.143-.47-2.043-1.136-2.7-1.998-.66-.86-1.122-1.91-1.388-3.148-.267-1.237-.4-2.608-.4-4.112V33.7h6.675v13.725c0 2.006.313 3.502.94 4.488.626.987 1.74 1.48 3.337 1.48 1.817 0 3.133-.54 3.948-1.62.814-1.082 1.222-2.86 1.222-5.335V33.7h6.674V58h-6.345zM149.428 33.7v3.385h.14c.847-1.41 1.943-2.436 3.29-3.078 1.348-.643 2.727-.964 4.137-.964 1.786 0 3.25.243 4.395.73 1.143.485 2.044 1.158 2.702 2.02.658.86 1.12 1.91 1.387 3.148.265 1.24.398 2.61.398 4.113V58h-6.674V44.276c0-2.005-.314-3.502-.94-4.49-.627-.985-1.74-1.48-3.337-1.48-1.817 0-3.133.542-3.948 1.623-.816 1.08-1.223 2.858-1.223 5.333V58h-6.674V33.7h6.345zM184.303 33.7v4.466h-4.89v12.032c0 1.128.19 1.88.565 2.256.375.376 1.127.563 2.256.563.375 0 .735-.015 1.08-.047.346-.03.674-.077.988-.14V58c-.564.094-1.19.156-1.88.188-.69.03-1.364.047-2.022.047-1.033 0-2.014-.07-2.937-.212-.924-.14-1.74-.415-2.444-.822s-1.263-.986-1.67-1.738c-.407-.752-.61-1.74-.61-2.96V38.165h-4.042V33.7h4.042v-7.284h6.674V33.7h4.89zM187.215 41.173c.095-1.566.486-2.867 1.176-3.9.69-1.034 1.567-1.864 2.634-2.49 1.064-.628 2.262-1.074 3.594-1.34 1.332-.267 2.672-.4 4.02-.4 1.223 0 2.46.087 3.713.26 1.253.17 2.397.51 3.433 1.01 1.033.5 1.88 1.198 2.537 2.09.658.895.986 2.077.986 3.55v12.643c0 1.098.062 2.146.19 3.15.124 1.002.343 1.754.657 2.255h-6.77c-.125-.375-.227-.76-.305-1.15s-.135-.79-.164-1.198c-1.066 1.097-2.32 1.864-3.76 2.303-1.443.438-2.914.658-4.418.658-1.16 0-2.242-.142-3.244-.423-1.003-.282-1.88-.72-2.632-1.316-.752-.595-1.34-1.347-1.763-2.256-.423-.908-.635-1.99-.635-3.243 0-1.38.243-2.515.73-3.407.485-.894 1.11-1.605 1.88-2.14.768-.53 1.645-.93 2.63-1.197.99-.266 1.983-.477 2.985-.634 1.004-.156 1.99-.282 2.963-.376.97-.094 1.832-.235 2.584-.423s1.348-.462 1.785-.823c.438-.36.642-.885.61-1.574 0-.72-.117-1.292-.352-1.716-.234-.423-.55-.752-.94-.986-.392-.235-.847-.392-1.362-.47-.518-.078-1.074-.118-1.67-.118-1.314 0-2.35.282-3.102.846-.752.564-1.19 1.505-1.316 2.82h-6.673zm15.416 4.936c-.28.25-.634.445-1.056.586-.424.142-.877.26-1.363.353s-.993.172-1.526.234-1.066.14-1.598.234c-.502.095-.996.22-1.48.376-.486.157-.91.37-1.27.635-.36.266-.65.603-.87 1.01-.22.407-.33.925-.33 1.55 0 .597.11 1.1.33 1.505.22.408.52.73.894.964.377.234.814.398 1.316.492.5.095 1.018.142 1.55.142 1.317 0 2.335-.22 3.056-.658.72-.438 1.254-.964 1.598-1.574.346-.61.557-1.23.635-1.857.078-.626.117-1.128.117-1.504v-2.49zM220.82 33.7v3.385h.142c.846-1.41 1.942-2.436 3.29-3.078 1.347-.643 2.726-.964 4.136-.964 1.786 0 3.25.243 4.395.73 1.144.485 2.044 1.158 2.702 2.02.658.86 1.12 1.91 1.387 3.148.266 1.24.4 2.61.4 4.113V58h-6.675V44.276c0-2.005-.313-3.502-.94-4.49-.627-.985-1.738-1.48-3.337-1.48-1.817 0-3.134.542-3.948 1.623s-1.222 2.858-1.222 5.333V58h-6.674V33.7h6.344zM251.322 65.238c-1.285.846-3.07 1.27-5.357 1.27-.69 0-1.37-.024-2.045-.07s-1.355-.104-2.044-.165v-5.5c.626.063 1.27.125 1.927.19.658.06 1.315.077 1.974.046.877-.095 1.527-.44 1.95-1.035.424-.595.635-1.253.635-1.974 0-.53-.094-1.033-.28-1.503l-8.51-22.795h7.1l5.498 16.638h.094l5.31-16.638h6.91l-10.15 27.307c-.725 1.972-1.727 3.38-3.012 4.228zM266.456 41.173c.094-1.566.485-2.867 1.175-3.9.69-1.034 1.567-1.864 2.634-2.49 1.064-.628 2.263-1.074 3.595-1.34 1.33-.267 2.67-.4 4.018-.4 1.223 0 2.46.087 3.713.26s2.398.51 3.433 1.01c1.034.5 1.88 1.198 2.538 2.09.658.895.987 2.077.987 3.55v12.643c0 1.098.062 2.146.188 3.15.125 1.002.345 1.754.658 2.255h-6.77c-.124-.375-.227-.76-.305-1.15s-.134-.79-.164-1.198c-1.065 1.097-2.32 1.864-3.76 2.303-1.442.438-2.914.658-4.418.658-1.16 0-2.24-.142-3.243-.423-1.003-.282-1.88-.72-2.632-1.316-.75-.595-1.34-1.347-1.762-2.256-.423-.908-.635-1.99-.635-3.243 0-1.38.242-2.515.73-3.407.484-.894 1.11-1.605 1.88-2.14.767-.53 1.645-.93 2.63-1.197.988-.266 1.982-.477 2.985-.634 1.003-.156 1.99-.282 2.962-.376.97-.094 1.833-.235 2.585-.423s1.347-.462 1.785-.823c.438-.36.643-.885.61-1.574 0-.72-.116-1.292-.352-1.716-.234-.423-.55-.752-.94-.986-.392-.235-.846-.392-1.362-.47-.518-.078-1.074-.118-1.67-.118-1.314 0-2.35.282-3.1.846-.753.564-1.192 1.505-1.317 2.82h-6.674zm15.416 4.936c-.282.25-.635.445-1.058.586-.423.142-.877.26-1.362.353-.486.093-.995.172-1.528.234s-1.065.14-1.598.234c-.502.095-.995.22-1.48.376-.486.157-.91.37-1.27.635-.36.266-.65.603-.87 1.01-.22.407-.328.925-.328 1.55 0 .597.11 1.1.33 1.505.218.408.517.73.893.964s.815.398 1.316.492c.5.095 1.018.142 1.55.142 1.317 0 2.335-.22 3.057-.658.72-.438 1.253-.964 1.598-1.574.346-.61.557-1.23.636-1.857.078-.626.117-1.128.117-1.504v-2.49z"/></g></svg>